<svg width="37" height="39" viewBox="0 0 37 39" fill="none" xmlns="http://www.w3.org/2000/svg">
<g filter="url(#filter0_d_333_39)">
<path d="M25.3981 23.7782C25.0744 24.1199 24.9256 24.6141 24.9994 25.0988L26.1106 31.7974C26.2044 32.3651 25.9844 32.9397 25.5481 33.2678C25.1206 33.6082 24.5519 33.649 24.0856 33.3767L18.5494 30.2317C18.3569 30.12 18.1431 30.0601 17.9244 30.0533C17.6989 30.0533 17.4638 30.0537 17.2675 30.1646C17.261 30.1683 17.2545 30.172 17.2481 30.1758L11.7106 33.3359C11.4369 33.4856 11.1269 33.5387 10.8231 33.4856C10.0831 33.3332 9.58936 32.5653 9.71061 31.7552L10.8231 25.0566C10.8969 24.5678 10.7481 24.0709 10.4244 23.7237L5.91061 18.9585C5.53311 18.5596 5.40186 17.9605 5.57436 17.42C5.74186 16.8808 6.16936 16.4874 6.68561 16.3989L12.8981 15.4172C13.3706 15.3641 13.7856 15.051 13.9981 14.5881L16.7356 8.47497C16.8006 8.33882 16.8844 8.21356 16.9856 8.10737L16.9984 8.0965C17.0648 8.04032 17.1246 7.97506 17.1897 7.91747C17.2587 7.85643 17.3424 7.81786 17.4279 7.78367L17.4356 7.78061C17.5757 7.71778 17.7275 7.6853 17.881 7.6853H18.1744C18.6444 7.7384 19.0581 8.04474 19.2744 8.5022L22.0481 14.5881C22.2481 15.0333 22.6369 15.3424 23.0856 15.4172L29.2981 16.3989C29.8231 16.4806 30.2619 16.8754 30.4356 17.42C30.5994 17.966 30.4581 18.565 30.0731 18.9585L25.3981 23.7782Z" fill="url(#paint0_linear_333_39)"/>
</g>
<defs>
<filter id="filter0_d_333_39" x="0.239773" y="0.672318" width="36.6917" height="37.5584" filterUnits="userSpaceOnUse" color-interpolation-filters="sRGB">
<feFlood flood-opacity="0" result="BackgroundImageFix"/>
<feColorMatrix in="SourceAlpha" type="matrix" values="0 0 0 0 0 0 0 0 0 0 0 0 0 0 0 0 0 0 127 0" result="hardAlpha"/>
<feOffset dx="0.584415" dy="-1.16883"/>
<feGaussianBlur stdDeviation="2.92208"/>
<feColorMatrix type="matrix" values="0 0 0 0 0.511008 0 0 0 0 0.455556 0 0 0 0 0.727778 0 0 0 0.4 0"/>
<feBlend mode="normal" in2="BackgroundImageFix" result="effect1_dropShadow_333_39"/>
<feBlend mode="normal" in="SourceGraphic" in2="effect1_dropShadow_333_39" result="shape"/>
</filter>
<linearGradient id="paint0_linear_333_39" x1="18.0011" y1="7.6853" x2="18.0011" y2="33.5554" gradientUnits="userSpaceOnUse">
<stop stop-color="#D8D0F7"/>
<stop offset="1" stop-color="#8EA8EC"/>
</linearGradient>
</defs>
</svg>
