<svg width="54" height="52" viewBox="0 0 54 52" fill="none" xmlns="http://www.w3.org/2000/svg">
<g filter="url(#filter0_d_181_12)">
<path d="M35.864 31.8667C35.4323 32.2851 35.234 32.8901 35.3323 33.4834L36.814 41.6834C36.939 42.3784 36.6456 43.0818 36.064 43.4834C35.494 43.9001 34.7356 43.9501 34.114 43.6168L26.7323 39.7667C26.4756 39.6301 26.1906 39.5568 25.899 39.5484C25.5983 39.5484 25.286 39.5473 25.0195 39.6866C25.0121 39.6904 25.0047 39.6944 24.9973 39.6984L17.614 43.5667C17.249 43.7501 16.8356 43.8151 16.4306 43.7501C15.444 43.5634 14.7856 42.6234 14.9473 41.6318L16.4306 33.4317C16.529 32.8334 16.3306 32.2251 15.899 31.8001L9.88065 25.9667C9.37731 25.4784 9.20231 24.7451 9.43231 24.0834C9.65565 23.4234 10.2256 22.9417 10.914 22.8334L19.1973 21.6317C19.8273 21.5667 20.3806 21.1834 20.664 20.6167L24.314 13.1334C24.4006 12.9667 24.5123 12.8134 24.6473 12.6834L24.6613 12.6726C24.7518 12.6022 24.8335 12.5202 24.9228 12.4483C25.0129 12.3757 25.1203 12.33 25.2289 12.2902L25.2473 12.2834C25.4344 12.2064 25.6347 12.1667 25.8371 12.1667H26.2323C26.859 12.2317 27.4106 12.6067 27.699 13.1667L31.3973 20.6167C31.664 21.1617 32.1823 21.5401 32.7806 21.6317L41.064 22.8334C41.764 22.9334 42.349 23.4167 42.5806 24.0834C42.799 24.7517 42.6106 25.4851 42.0973 25.9667L35.864 31.8667Z" fill="url(#paint0_linear_181_12)"/>
</g>
<defs>
<filter id="filter0_d_181_12" x="0.33252" y="0.166748" width="53.3376" height="51.6687" filterUnits="userSpaceOnUse" color-interpolation-filters="sRGB">
<feFlood flood-opacity="0" result="BackgroundImageFix"/>
<feColorMatrix in="SourceAlpha" type="matrix" values="0 0 0 0 0 0 0 0 0 0 0 0 0 0 0 0 0 0 127 0" result="hardAlpha"/>
<feOffset dx="1" dy="-2"/>
<feGaussianBlur stdDeviation="5"/>
<feColorMatrix type="matrix" values="0 0 0 0 0.511008 0 0 0 0 0.455556 0 0 0 0 0.727778 0 0 0 0.4 0"/>
<feBlend mode="normal" in2="BackgroundImageFix" result="effect1_dropShadow_181_12"/>
<feBlend mode="normal" in="SourceGraphic" in2="effect1_dropShadow_181_12" result="shape"/>
</filter>
<linearGradient id="paint0_linear_181_12" x1="26.0014" y1="12.1667" x2="26.0014" y2="43.8355" gradientUnits="userSpaceOnUse">
<stop stop-color="#D8D0F7"/>
<stop offset="1" stop-color="#8EA8EC"/>
</linearGradient>
</defs>
</svg>
